<svg xmlns="http://www.w3.org/2000/svg" viewBox="0 0 370.4 354.08"><defs>

</defs>
    <path id="deco" d="M47.61,134.63c26.93-27.43,113-155.86,175.56-118.54,71.63,42.69,118-7.31,137.36,48.31s6.64,93-7.77,120.23S312.5,243.9,303.23,286.87s-35.68,84.5-87.08,59.81S99.89,319.15,58.28,300.92-43.4,227.32,47.61,134.63Z"/>
    <path id="clip-end" d="M117.72,80.77c-11,24-27.93,48.18-52.78,55.35s-42.79,52-27.16,62S76,188.39,74.67,219.65,24.45,290.11,53.15,316s123.24,41.51,161.42,9.74S253,275.25,297.08,270.9,364,245.09,347.3,216.74s-31-60.63-10.76-84.72S364.72,6.21,317.06.32s-79.68,72-102.49,56.88S154.36.83,117.72,80.77Z"/>
    <path id="clip-start" d="M131.55,121.09c-26.13,3.62-73.65,15.58-67.35,50.65C69,198.64,97.92,182.32,110,196.42c15.78,18.47,10.14,28.5,7.86,37.64-7.41,29.76-51.9,41.19-27,62.36,11.09,9.43,42.39,22.68,90.45,10.12,44.18-11.56,28.15-32.61,53-28.09,25.46,4.65,57.82,13.12,66.36-16.27,9.18-31.57-17.56-35.26-10.76-58.42,7.86-26.72,23.79-25.23,7-48.51-12.15-16.85-51.33-9-76.87-18.11C194.28,127.93,166.06,116.3,131.55,121.09Z"/>
</svg>