<svg id="Layer_1" data-name="Layer 1" xmlns="http://www.w3.org/2000/svg" viewBox="0 0 288 279.46"><defs><style>.cls-1{fill:#eccc2d;}</style></defs><g id="upholstery_design" data-name="upholstery &amp; design"><g id="upholstery"><path class="cls-1" d="M57.06,179.24h3.86c.81,0,1.21.24,1.21.73-1,.81-1.42,2.69-1.42,5.62q-.68,12.6,2.77,12.32,4.13,1,3.53-9,0-8.72-1.83-8.71c-.08-.54.12-.84.61-.91h4.47c.5.08.7.32.61.73-1,.42-1.32,1.45-1,3.08l1.83,12.88q0,4.9-5.48,4.9H61.93q-6.06,0-5.49-6l1-11.79A3.78,3.78,0,0,0,55.83,180C55.69,179.44,56.09,179.2,57.06,179.24Z" transform="translate(-0.44 -5.07)"/><path class="cls-1" d="M77.76,194.43q0,4.4,2,5.3c.24.56.11.93-.41,1.1h-6c-.43,0-.64-.17-.61-.54a10,10,0,0,0,1.23-4.4q0-15.55-1.23-15.55a.46.46,0,0,1-.48-.43c0-.29.19-.52.68-.67H86.17c.39.07.52.31.41.73a8.55,8.55,0,0,0,.82,5.86q-.18,5-9.73,6.41Zm-.21-8.73v4.74q6.24-3.33,6.16-5.83.11-3.36-2.47-3.46Q77.54,181.42,77.55,185.7Z" transform="translate(-0.44 -5.07)"/><path class="cls-1" d="M89,179.23h5.84l.42.37V180q-1.45,1.18-1.46,5.13v2.56a7,7,0,0,1,4-1.47,5.56,5.56,0,0,1,2.71,1.29v-3.58A4.93,4.93,0,0,0,98.77,180v-.36l.42-.37h5.63a.55.55,0,0,1,.41.37,15.76,15.76,0,0,0-1.25,7V195a11,11,0,0,0,1,5.5l-.42.36H99.19l-.62-.73a7.36,7.36,0,0,0,1.87-4.94v-.37q0-5.67-2.92-5.67a4.08,4.08,0,0,0-4,4.21q0,5.79,1.46,6.77a.51.51,0,0,1-.41.73H88.77q-.42,0-.42-.54,1.66-1.53,1.66-6l-.2-3.66V184a6.06,6.06,0,0,0-1.46-4.21A.63.63,0,0,1,89,179.23Z" transform="translate(-0.44 -5.07)"/><path class="cls-1" d="M106.08,183.64q0-4.39,4.72-4.39h5.94q5.42-.13,4.92,5.85a10.92,10.92,0,0,0-.1,9.88q.51,6-4.92,5.85H110.7c-3.14,0-4.72-1.46-4.72-4.39A17.22,17.22,0,0,0,106.08,183.64Zm4.21,7.55q0,6.74,3.28,6.73c2.42,0,3.58-2.21,3.48-6.55.07-1.51.1-2.38.1-2.64.1-4.34-1.06-6.53-3.48-6.55q-3.28,0-3.28,6.73Z" transform="translate(-0.44 -5.07)"/><path class="cls-1" d="M122.84,179.25h7.38c.76.15,1,.76.82,1.82l-.41.37h-.41c-.2-.38-.74-.51-1.64-.37s-1.23,1.83-1.23,5.49v3.3q0,9,3.9,9a2.47,2.47,0,0,0,2-2.75c0-2.07-.34-3.26-1.09-3.58s-1.14-.28-1.15.12-.29.57-.83.53c-.68-.31-.89-1.28-.61-2.92.21-.48.83-.72,1.84-.72q3.18,0,5.32,8,.15,3.14-2.45,3.29H123.25c-.56-.12-.77-.36-.61-.73q1.42-1.33,1.43-5.12v-5.67q0-8.69-1.64-9.33C122.26,179.56,122.39,179.31,122.84,179.25Z" transform="translate(-0.44 -5.07)"/><path class="cls-1" d="M138.68,179.25h11q1.83,0,1.83,4.2c0,1.1-.47,1.65-1.42,1.65h-2.67c-.42-.26-.56-.56-.41-.91.74-.39,1-.82.82-1.28q0-1.47-2.25-1.47-3.24,0-3.65,2.75c0,1.73,1.85,3.07,5.53,4a7.89,7.89,0,0,1,4.71,7.49q-.55,5.11-3.89,5.12H139.5c-1.09,0-1.71-.61-1.84-1.83.12-3.95.74-6,1.84-6.22H143c.47.09.61.33.41.74a2.57,2.57,0,0,0-1.44,2.55c.38,1.47,1.13,2.2,2.26,2.2q3.48-.44,3.48-3.84,0-4.47-5.33-4.75a10.24,10.24,0,0,0-3.07.72,1.42,1.42,0,0,1-1.3-1.57l.89-7.2a2.13,2.13,0,0,0-.64-1.85C138.16,179.48,138.3,179.3,138.68,179.25Z" transform="translate(-0.44 -5.07)"/><path class="cls-1" d="M167.42,179.25c1,0,1.4,2.07,1.33,6.22a.9.9,0,0,1-.73.21c-.23-.05-.62-.73-1.18-2s-1.18-2-1.87-2.22q-2.76-.16-2.18,13.38c.09,2.44.81,4.13,2.18,5.09a.73.73,0,0,1-.41.92h-7c-.42-.16-.55-.4-.41-.73a5.9,5.9,0,0,0,2-4.76q.21-13.87-2-13.71-1.69,0-3.08,3.84-.84.53-1.23,0v-2.74q0-3.48,1.44-3.48Z" transform="translate(-0.44 -5.07)"/><path class="cls-1" d="M173.85,188.33a24.32,24.32,0,0,1,4.82-1q2.45-.08,2.57,3.3a1.56,1.56,0,0,1-1.53.05,2.79,2.79,0,0,0-1.89-.18,13.73,13.73,0,0,0-3.84.66c.41,4.39,1.59,6.6,3.52,6.62,2.35,0,3.45-.29,3.32-.94v-2l.4-.36h.61c.82-.06,1.61,1.09,2.36,3.47q0,2.9-5.07,2.9h-3.85q-5.61-.47-5.47-6.53c.13-2.13.82-6.59,2-13.38.1-1.09.57-1.66,1.43-1.72l8.69.05.4.35c-.52,1.07-.15,2,1.11,2.89,0,1.1-1.22,1.64-3.65,1.64h-1q2.56-2.12-.91-2.52Q174,181.19,173.85,188.33Z" transform="translate(-0.44 -5.07)"/><path class="cls-1" d="M185.36,179.25h12.93c.27,0,.41.18.41.54q-1,1.47.82,6.23c0,1.33-1.51,2.74-4.51,4.21q1.94,0,3.19,6.38t8.55,8.85q-11.22,1-11.62-6c-.26-4.64-1.2-7.3-2.8-8q-2.33,0-2.66,3.85,0,3.75,2.05,4.39c.46.65.33,1-.41,1.1h-6.16c-.35-.07-.49-.25-.41-.55a18.62,18.62,0,0,0,1.44-7.88q0-12.45-1.44-12.45C184.62,179.47,184.82,179.23,185.36,179.25Zm4.31,7.91v2.74q6.2-2.94,6-6.2.12-2.26-3.49-2Q189.67,182.73,189.67,187.16Z" transform="translate(-0.44 -5.07)"/><path class="cls-1" d="M209.37,190c.68-.34,1.3-1.36,1.85-3q1-7.29,2.8-7.8h3.74q.54.1.33.75a4.76,4.76,0,0,0-1.53,3.14,20.2,20.2,0,0,1-.84,3.61,7.51,7.51,0,0,1-2.6,4.06q-1.91,1.51-1.72,5.49c0,1.83.6,3.07,1.77,3.71.21.47.07.78-.42.91H206c-.49-.13-.63-.44-.43-.91,1.18-.64,1.77-1.88,1.78-3.71q.18-4-1.72-5.49a7.51,7.51,0,0,1-2.6-4.06,19.37,19.37,0,0,1-.84-3.61,4.76,4.76,0,0,0-1.54-3.14c-.13-.43,0-.68.34-.75h3.74q1.78.51,2.8,7.8C208.08,188.65,208.7,189.67,209.37,190Z" transform="translate(-0.44 -5.07)"/></g><path id="_" data-name="&amp;" class="cls-1" d="M127.94,203.6h11.84l.62.51-.33.63q-1,1.22,0,3.93c0,1-.88,1.76-2.63,2.35a9.63,9.63,0,0,0-2.87,2.34q1.56,3,6.1,4.76,1-4.17-.77-4c-.77-.07-.91.38-.42,1.36-.1.23-.41.4-.94.52a2.43,2.43,0,0,1-1.77-2.41c.17-1,.71-1.52,1.61-1.52l1.61.08,2.45-.08c1.13,0,1.72.74,1.78,2.2a19.63,19.63,0,0,1-1,5.22c2.37,1.46,3.56,2.94,3.56,4.46q0,.8-1,1.29h-4.4l-.43-.45.17-1.21-.08-.08a8.25,8.25,0,0,1-3.3,1.67v.07h-7.79a4.38,4.38,0,0,1-3.13-4.46c0-1.87,1.44-4.3,4.32-7.27a11.39,11.39,0,0,1-2.29-5.83,5.16,5.16,0,0,0-1.52-2.87A1,1,0,0,1,127.94,203.6Zm3.38,15.25q0,3.77,4.23,4.44a4.22,4.22,0,0,0,4-2.63,49.54,49.54,0,0,0-6.77-5A3.71,3.71,0,0,0,131.32,218.85Zm2.2-7.21a5.66,5.66,0,0,0,2.54-3.16c.06-1.81-.45-2.71-1.52-2.71s-1.69.78-1.95,2.34A6.84,6.84,0,0,0,133.52,211.64Z" transform="translate(-0.44 -5.07)"/><g id="design"><path class="cls-1" d="M93.23,229.44h7.61q5.79,0,8.28,9.25a19.42,19.42,0,0,1,.89,6.17q0,6.18-7.83,6.17h-7.6c-1.35,0-2-.3-2-.91a7.18,7.18,0,0,0,2-5.07q-.18-5.87-.23-10.54A7,7,0,0,0,92.56,230C92.52,229.6,92.75,229.42,93.23,229.44Zm4.7,8.81q0,9.9,4.25,9.9,2.92,0,2.92-6.48-.84-9.25-4.48-9.36Q98.37,232.31,97.93,238.25Z" transform="translate(-0.44 -5.07)"/><path class="cls-1" d="M114.87,238.53a24.42,24.42,0,0,1,4.81-1c1.64,0,2.49,1.06,2.58,3.3a1.56,1.56,0,0,1-1.53,0,2.82,2.82,0,0,0-1.89-.18,13.67,13.67,0,0,0-3.84.66c.41,4.4,1.58,6.6,3.52,6.62,2.34,0,3.45-.29,3.32-.94v-2l.4-.36h.61c.82-.06,1.6,1.1,2.36,3.47,0,1.94-1.7,2.9-5.08,2.9h-3.84q-5.62-.47-5.48-6.53.21-3.19,2-13.38c.09-1.09.57-1.66,1.43-1.72l8.69,0,.4.35c-.53,1.07-.16,2,1.11,2.89,0,1.1-1.22,1.64-3.65,1.64h-1q2.58-2.12-.9-2.52Q115.07,231.39,114.87,238.53Z" transform="translate(-0.44 -5.07)"/><path class="cls-1" d="M126.86,229.45h11c1.22,0,1.84,1.4,1.84,4.21,0,1.09-.48,1.64-1.43,1.64h-2.66c-.43-.26-.57-.56-.41-.91.73-.39,1-.81.82-1.28,0-1-.76-1.46-2.26-1.46-2.16,0-3.37.91-3.65,2.74q0,2.6,5.54,4a7.91,7.91,0,0,1,4.7,7.49q-.56,5.11-3.88,5.12h-8.82c-1.09,0-1.71-.61-1.84-1.82.12-4,.74-6,1.84-6.23h3.49c.47.09.61.33.41.74a2.57,2.57,0,0,0-1.44,2.55c.38,1.47,1.13,2.2,2.26,2.2q3.48-.43,3.48-3.84c0-3-1.77-4.56-5.33-4.75a10.24,10.24,0,0,0-3.07.72,1.43,1.43,0,0,1-1.3-1.56l.89-7.21a2.13,2.13,0,0,0-.64-1.85C126.34,229.68,126.49,229.5,126.86,229.45Z" transform="translate(-0.44 -5.07)"/><path class="cls-1" d="M147.06,245.6c0,2.67.35,4.25,1,4.73.06.42-.08.66-.41.73h-5.74c-.42,0-.55-.18-.41-.54q1.44-1.4,1.44-5.65v-1.82l.09-9.28a6.5,6.5,0,0,0-1.53-3.52c-.17-.39,0-.64.41-.73h5.94a.75.75,0,0,1,.62.55q-1.44,1.8-1.44,5.64Z" transform="translate(-0.44 -5.07)"/><path class="cls-1" d="M161.48,251h-7.72q-4.31,0-4.3-5.68,0-1.65,1.84-12.06a2.84,2.84,0,0,0-.61-2.93c-.13-.47.08-.78.61-.91h10.86c.62.28.74.67.37,1.16s-.15,1.87.65,4.14q0,2-3.06,2h-2.26c-.44-.07-.58-.31-.41-.72,1.37-.93,2.05-1.79,2.05-2.57a2.17,2.17,0,0,0-2.05-1.64q-3.88,0-3.89,8,0,6.75,3.28,8.41,4.78,1.14,3.48-4.57c0-1.83-.54-2.75-1.64-2.75s-1.8.66-2.25,2a.75.75,0,0,1-1-.54c0-2.56.62-3.84,1.85-3.84h6.14c.62.12.74.51.36,1.16a3.61,3.61,0,0,0-.57,1.76v2.38a15.38,15.38,0,0,0,.81,5c.55,1.6.93,2.73,1.17,3.39,0,1.34-1,2-3.07,2h-2.25c-.44-.07-.58-.31-.41-.73C160.75,252.62,161.43,251.79,161.48,251Z" transform="translate(-0.44 -5.07)"/><path class="cls-1" d="M166,229.43h4.5q3.07,0,4,6a41,41,0,0,0,2.54,9.73c.47.28.68-.14.61-1.28q0-13.35-2-13.36l-.21-.18c-.29-.46-.16-.76.41-.92h5.11c.49.11.63.35.41.74q-1.64.51-1.63,8.41l-.21,4.95a15.38,15.38,0,0,0,1.43,7.14c-.06.19-.27.31-.61.36h-3.47q-3,0-4.58-7.87t-1.92-8.69c-.23-.55-.54-.83-.92-.84l-.15.56v9.34q0,5.07,1.84,6c.54.07.82.25.82.56a.68.68,0,0,1-.41.91H166c-.51-.07-.71-.38-.62-.91q1.84-1.44,1.84-5.31-.06-4.55.21-8.24c0-3.16-.62-5.3-1.84-6.4C165.39,229.78,165.53,229.54,166,229.43Z" transform="translate(-0.44 -5.07)"/></g></g><g id="mpls_mn" data-name="mpls mn"><path class="cls-1" d="M54.94,264.06h3.34q2.32,0,2.67,3.51A55.51,55.51,0,0,0,62,274c.1.25.2.25.32,0l1.12-8.65a2.14,2.14,0,0,1,1-1.27h3.83a.72.72,0,0,1,.47,1,3.76,3.76,0,0,0-.79,2.72l1.59,12.32c.17,1.77-.09,2.73-.8,2.88H64.82c-.41-.17-.52-.43-.32-.8A5,5,0,0,0,66.42,278a65.72,65.72,0,0,0-1.12-10.56q-.19-.46-.48,0a58.54,58.54,0,0,1-1.24,9c-.4,1.31-.31,2.15.28,2.54.18.47,0,.73-.47.8H62.27A2.08,2.08,0,0,1,60.2,278q-1.65-10.69-2.55-10.24-.67,0-1,8c0,3,1,5.17,2.87,6.57a.45.45,0,0,1-.32.64H55.73c-.85,0-1.27-.48-1.27-1.44l.95-13.76a4,4,0,0,0-.95-2.88A.58.58,0,0,1,54.94,264.06Z" transform="translate(-0.44 -5.07)"/><path class="cls-1" d="M74.89,278.19c0,2.34.27,3.71.8,4.14,0,.36-.06.57-.32.64H70.91c-.32,0-.43-.16-.32-.48q1.13-1.22,1.12-4.94V276l.07-8.12a6,6,0,0,0-1.19-3.08c-.13-.34,0-.55.32-.63h4.62a.62.62,0,0,1,.48.47,8.63,8.63,0,0,0-1.12,4.94Z" transform="translate(-0.44 -5.07)"/><path class="cls-1" d="M77.21,264.05h3.5q2.39,0,3.1,5.25a39.91,39.91,0,0,0,2,8.51c.37.25.52-.12.47-1.12q0-11.69-1.58-11.68l-.16-.16c-.23-.4-.12-.67.32-.8h4c.39.09.49.3.32.64-.84.3-1.27,2.75-1.27,7.36l-.15,4.33a14.85,14.85,0,0,0,1.1,6.24c0,.17-.2.27-.47.32h-2.7q-2.34,0-3.56-6.88c-.8-4.59-1.3-7.13-1.48-7.61s-.42-.72-.72-.73l-.11.49v8.17q0,4.42,1.42,5.27c.43.06.64.22.64.49a.62.62,0,0,1-.32.8H77.21c-.39-.06-.55-.33-.47-.8q1.42-1.26,1.42-4.64c0-2.66,0-5.06.16-7.21q0-4.14-1.42-5.6C76.73,264.35,76.83,264.14,77.21,264.05Z" transform="translate(-0.44 -5.07)"/><path class="cls-1" d="M90.12,264.05h3.5c1.58,0,2.62,1.75,3.1,5.25a38.73,38.73,0,0,0,2,8.51c.36.25.52-.12.47-1.12q0-11.69-1.59-11.68l-.16-.16c-.22-.4-.12-.67.32-.8h4c.38.09.49.3.32.64q-1.27.45-1.27,7.36l-.16,4.33a14.84,14.84,0,0,0,1.11,6.24c0,.17-.21.27-.47.32h-2.7c-1.57,0-2.75-2.29-3.56-6.88s-1.3-7.13-1.48-7.61-.43-.72-.72-.73l-.12.49v8.17q0,4.42,1.43,5.27c.42.06.63.22.63.49s0,.66-.31.8H90.12c-.39-.06-.55-.33-.48-.8q1.42-1.26,1.43-4.64,0-4,.16-7.21,0-4.14-1.43-5.6C89.63,264.35,89.74,264.14,90.12,264.05Z" transform="translate(-0.44 -5.07)"/><path class="cls-1" d="M105.83,272a16.91,16.91,0,0,1,3.74-.91c1.27,0,1.93.93,2,2.89-.53.24-.93.26-1.19.05a2,2,0,0,0-1.47-.17,9.71,9.71,0,0,0-3,.58q.48,5.78,2.73,5.8c1.82,0,2.68-.26,2.58-.83v-1.74l.31-.31H112c.64-.06,1.25.95,1.84,3,0,1.69-1.32,2.54-3.94,2.54h-3q-4.37-.42-4.25-5.71c.1-1.86.63-5.77,1.59-11.7.07-1,.44-1.46,1.11-1.51l6.75,0,.31.31a2,2,0,0,0,.86,2.53c0,1-1,1.43-2.84,1.43h-.79c1.34-1.23,1.1-2-.7-2.2Q106,265.76,105.83,272Z" transform="translate(-0.44 -5.07)"/><path class="cls-1" d="M123.88,264.05c2.21,0,3.32.68,3.32,1.95q4.1,10.63,4.1,15.39c0,1.05-.65,1.58-2,1.58h-3.7c-.68,0-1.07-.15-1.17-.47V282a4.7,4.7,0,0,0,2.34-4.44c-.34-3.7-1.44-5.55-3.32-5.55h-.78q-4,0-4.69,4.59,0,3.54,3.91,5.24v.64c-.09.32-.61.47-1.56.47h-3.52c-1.69-.13-2.54-.66-2.54-1.58l3.51-14.13v-.47Q116.37,263.77,123.88,264.05Zm-4.64,6.88v.15a12.64,12.64,0,0,1,5.47-1.57c0-1.89-.84-2.84-2.54-2.84A4.19,4.19,0,0,0,119.24,270.93Z" transform="translate(-0.44 -5.07)"/><path class="cls-1" d="M136,277.34c0,2.57.53,4.11,1.59,4.64.19.49.08.81-.32,1h-4.62q-.51,0-.48-.48a9.5,9.5,0,0,0,1-3.84q0-13.61-1-13.6c-.21,0-.34-.13-.37-.38s.14-.45.53-.58h10.2c.3.06.41.27.32.63a8.25,8.25,0,0,0,.63,5.13q-.13,4.38-7.55,5.61Zm-.16-7.63v4.14c3.22-1.94,4.82-3.64,4.78-5.1q.07-2.92-1.92-3Q135.79,266,135.81,269.71Z" transform="translate(-0.44 -5.07)"/><path class="cls-1" d="M144.14,267.9q0-3.84,3.66-3.84h4.62c2.8-.08,4.08,1.63,3.82,5.12a10.62,10.62,0,0,0-.08,8.64q.39,5.24-3.82,5.12h-4.61q-3.67,0-3.67-3.84A16.88,16.88,0,0,0,144.14,267.9Zm3.27,6.6q0,5.89,2.54,5.89c1.88,0,2.79-1.93,2.71-5.73.05-1.31.08-2.08.08-2.3q.1-5.7-2.71-5.73-2.55,0-2.55,5.89Z" transform="translate(-0.44 -5.07)"/><path class="cls-1" d="M157.16,264.06h5.73c.59.14.8.67.63,1.6l-.32.32h-.31c-.16-.34-.58-.44-1.28-.32s-1,1.6-1,4.8v2.88q0,7.85,3,7.84,1.59-.39,1.59-2.4c0-1.81-.27-2.86-.85-3.13s-.88-.25-.89.1-.23.5-.64.47c-.53-.28-.69-1.13-.48-2.56.17-.42.65-.63,1.43-.63q2.47,0,4.13,7c.08,1.83-.55,2.79-1.9,2.88h-8.6c-.43-.11-.59-.32-.47-.64.74-.78,1.11-2.27,1.11-4.48v-5q0-7.59-1.27-8.16C156.7,264.34,156.81,264.12,157.16,264.06Z" transform="translate(-0.44 -5.07)"/><path class="cls-1" d="M173.39,278.19c0,2.34.27,3.71.8,4.14,0,.36-.06.57-.32.64h-4.46c-.32,0-.43-.16-.32-.48q1.13-1.22,1.12-4.94V276l.07-8.12a6,6,0,0,0-1.19-3.08c-.13-.34,0-.55.32-.63H174a.62.62,0,0,1,.48.47,8.63,8.63,0,0,0-1.12,4.94Z" transform="translate(-0.44 -5.07)"/><path class="cls-1" d="M176,264.06h8.57c1,0,1.42,1.23,1.42,3.68,0,1-.36,1.44-1.1,1.44h-2.07a.63.63,0,0,1-.32-.8c.57-.33.78-.71.64-1.12,0-.85-.59-1.28-1.76-1.28a2.53,2.53,0,0,0-2.83,2.4c0,1.52,1.43,2.69,4.3,3.53a7,7,0,0,1,3.65,6.55c-.28,3-1.29,4.48-3,4.48h-6.85c-.85,0-1.33-.53-1.43-1.6.1-3.45.57-5.27,1.43-5.44h2.71c.37.07.47.29.32.64a2.34,2.34,0,0,0-1.12,2.24c.29,1.28.88,1.92,1.75,1.92q2.71-.37,2.71-3.36c0-2.6-1.38-4-4.14-4.15a6.86,6.86,0,0,0-2.39.63c-.63-.09-1-.55-1-1.37l.68-6.31a2,2,0,0,0-.49-1.61C175.63,264.26,175.74,264.11,176,264.06Z" transform="translate(-0.44 -5.07)"/><path class="cls-1" d="M190.18,283.2a1.85,1.85,0,0,1-1.26.71,4.13,4.13,0,0,0-1.93.62,1,1,0,0,1,.52-.83l1.38-.72a1.76,1.76,0,0,1-1.66-1.92,1.81,1.81,0,0,1,1.82-1.62,1.72,1.72,0,0,1,1.74,1.42A3.16,3.16,0,0,1,190.18,283.2Z" transform="translate(-0.44 -5.07)"/><path class="cls-1" d="M191.88,264.06h3.35q2.31,0,2.67,3.51a55.51,55.51,0,0,0,1,6.41c.09.25.2.25.32,0l1.11-8.65a2.19,2.19,0,0,1,1-1.27h3.82a.72.72,0,0,1,.48,1,3.76,3.76,0,0,0-.79,2.72l1.59,12.32c.17,1.77-.09,2.73-.8,2.88h-3.83c-.4-.17-.51-.43-.31-.8a5.06,5.06,0,0,0,1.91-4.16,64.56,64.56,0,0,0-1.12-10.56c-.13-.31-.28-.31-.48,0a57.7,57.7,0,0,1-1.23,9c-.4,1.31-.31,2.15.28,2.54.17.47,0,.73-.48.8h-1.11a2.09,2.09,0,0,1-2.08-1.76q-1.63-10.69-2.54-10.24c-.45,0-.78,2.66-1,8q0,4.47,2.88,6.57a.46.46,0,0,1-.32.64h-3.51c-.85,0-1.27-.48-1.27-1.44l1-13.76a4,4,0,0,0-1-2.88A.57.57,0,0,1,191.88,264.06Z" transform="translate(-0.44 -5.07)"/><path class="cls-1" d="M207.58,264.05h3.5c1.59,0,2.62,1.75,3.11,5.25a38.79,38.79,0,0,0,2,8.51c.37.25.52-.12.47-1.12q0-11.69-1.58-11.68l-.16-.16c-.23-.4-.13-.67.32-.8h4c.38.09.49.3.32.64-.84.3-1.27,2.75-1.27,7.36l-.16,4.33a14.84,14.84,0,0,0,1.11,6.24c0,.17-.21.27-.47.32H216q-2.34,0-3.56-6.88c-.8-4.59-1.3-7.13-1.48-7.61s-.42-.72-.72-.73l-.12.49v8.17q0,4.42,1.43,5.27c.43.06.64.22.64.49a.62.62,0,0,1-.32.8h-4.29c-.39-.06-.55-.33-.47-.8q1.42-1.26,1.42-4.64c0-2.66,0-5.06.16-7.21q0-4.14-1.42-5.6C207.1,264.35,207.2,264.14,207.58,264.05Z" transform="translate(-0.44 -5.07)"/></g><g id="the_cloak_room" data-name="the cloak room"><g id="the"><path class="cls-1" d="M2.94,123.67c0-1,1.76-1.42,5.3-1.35a1,1,0,0,1,.17.74c0,.23-.61.62-1.72,1.18s-1.73,1.2-1.88,1.9q-.15,2.77,11.38,2.19c2.07-.09,3.52-.82,4.33-2.19.32-.14.58,0,.78.41v7c-.13.42-.34.56-.62.42a4.69,4.69,0,0,0-4.05-2.07Q4.82,131.71,5,134q0,1.71,3.28,3.1c.29.56.29,1,0,1.24H5.9c-2,0-3-.49-3-1.45Z" transform="translate(-0.44 -5.07)"/><path class="cls-1" d="M2.93,120.56v-5.88l.31-.43h.31c.67,1,2.12,1.48,4.36,1.48h2.18a8,8,0,0,1-1.25-4A6.18,6.18,0,0,1,9.94,109h-3a3.92,3.92,0,0,0-3.34,1.69H3.24l-.31-.43v-5.67a.5.5,0,0,1,.31-.42,11.56,11.56,0,0,0,5.91,1.26h7.17A8.12,8.12,0,0,0,21,104.38l.31.42v5.46l-.61.63A5.78,5.78,0,0,0,16.48,109h-.32q-4.82,0-4.82,2.94.36,3.72,3.58,4,4.94,0,5.77-1.47c.33-.1.54,0,.61.42v5.89c0,.28-.15.42-.46.42q-1.31-1.68-5.14-1.68l-3.12.21H7a4.69,4.69,0,0,0-3.59,1.47A.6.6,0,0,1,2.93,120.56Z" transform="translate(-0.44 -5.07)"/><path class="cls-1" d="M10.67,99.24a28.42,28.42,0,0,1-.88-4.85c0-1.65.9-2.51,2.81-2.59a1.83,1.83,0,0,1,0,1.54,3.3,3.3,0,0,0-.16,1.9,15.86,15.86,0,0,0,.57,3.87c3.74-.41,5.62-1.6,5.63-3.55,0-2.36-.25-3.47-.8-3.34H16.19l-.31-.41V91.2c-.05-.83.93-1.62,2.95-2.38q2.48,0,2.47,5.12v3.87c-.26,3.77-2.12,5.61-5.55,5.52a113.47,113.47,0,0,1-11.39-2.06A1.43,1.43,0,0,1,2.9,99.83l0-8.76.3-.41q1.37.8,2.46-1.11c.93,0,1.4,1.22,1.4,3.68v1c-1.21-1.73-1.92-1.43-2.15.91C4.71,97.75,6.61,99.11,10.67,99.24Z" transform="translate(-0.44 -5.07)"/></g><g id="cloak"><path class="cls-1" d="M5.63,5.19H39.28c.83.1,1.25.45,1.29,1Q38.05,11,43.81,24.47q0,4.82-11.64,4.81H28.92q8.51-9.64-2.59-17.13Q13.6,10.86,13.38,33.58q.94,26.16,11.67,26.25,11.22.08,9.71-9.12V44.82L36,43.75H38q3.92-.26,8.42,16.59,0,8.58-16.2,8.58H17.93Q0,67.52.45,49.64q.66-9.44,5.81-35.88Q2.54,6.89,5.63,5.19Z" transform="translate(-0.44 -5.07)"/><path class="cls-1" d="M49.8,5.19H73.36Q77,5.86,76,10.58l-1.3,1.1H73.36q-.94-1.73-5.24-1.1-3.91,0-3.92,16.21v9.74Q64.2,63,76.63,63c4.36-.88,6.54-3.58,6.54-8.13q.08-9.15-3.51-10.56T76,44.64c0,1.17-.93,1.7-2.64,1.58q-3.27-1.38-2-8.64,1-2.13,5.89-2.13,10.16,0,17,23.75.47,9.26-7.83,9.72H51.11c-1.79-.36-2.45-1.08-2-2.17q4.58-3.93,4.58-15.11V34.89q0-25.62-5.23-27.53C47.94,6.11,48.37,5.39,49.8,5.19Z" transform="translate(-0.44 -5.07)"/><path class="cls-1" d="M97.67,18.15q0-13,15-13h19q17.3-.39,15.7,17.28-7.72,14.66-.32,29.17,1.6,17.67-15.7,17.28h-19q-15,0-15.05-13Q105.36,36.49,97.67,18.15Zm13.42,22.29q0,19.88,10.47,19.88,11.59-.1,11.12-19.34c.21-4.45.32-7,.32-7.79q.47-19.23-11.13-19.34-10.45,0-10.46,19.88Z" transform="translate(-0.44 -5.07)"/><path class="cls-1" d="M189,5.14q13.64.15,13.64,6.58,16.85,35.93,16.85,52,0,5.34-8,5.35H196.25c-2.78,0-4.38-.53-4.82-1.59V65.8q9.63-4.48,9.63-15Q199,32.07,187.4,32.08h-3.19q-16.31,0-19.26,15.52,0,11.92,16,17.69v2.15Q180.5,69,174.58,69H160.13q-10.44-.68-10.44-5.35L164.14,16V14.39Q158.14,4.23,189,5.14ZM170,28.36v.54q12.83-5.31,22.48-5.31Q192.45,14,182,14,170,17.72,170,28.36Z" transform="translate(-0.44 -5.07)"/><path class="cls-1" d="M223.88,5.16h17c1.31,0,2,.72,2,2.15a16.57,16.57,0,0,0-4.58,11.89q-1.34,10.77.81,10.49Q245.5,31.16,250,24.3t4.75-13q.24-6.14,3.15-6.14h15.68c1.55,0,2.2.76,2,2.15q-11.1,6.18-11,12.45T247.25,34l9.34-.26q9.8.67,9.79,8.09-4.71,18.87-.68,25.34T288.44,83q-28,1.37-30.7-8.5A116.41,116.41,0,0,1,254.25,51q-.8-13.62-11.4-12.35c-1.62,0-2.71,2.17-3.27,6.49q0,15.78,7.2,21.59a1.64,1.64,0,0,1-1.31,2.17H225.84c-1.58-.13-2.24-.67-2-1.62q5.24-4.36,5.23-17.82-1.28-41.55-6.54-41.55l-.65-.56C221.6,6.24,222.26,5.52,223.88,5.16Z" transform="translate(-0.44 -5.07)"/></g><g id="room"><path class="cls-1" d="M31.23,83.84H72.5c.87,0,1.3.54,1.3,1.62q-3.28,4.33,2.62,18.38,0,5.91-14.39,12.44,6.19,0,10.18,18.84T99.5,161.25q-35.79,2.91-37.07-17.66T53.5,120.07q-7.44,0-8.51,11.34,0,11.09,6.55,13,2.22,2.83-1.31,3.22H30.57c-1.11-.18-1.55-.72-1.3-1.61q4.57-9.07,4.57-23.26Q33.84,86,29.27,86C28.86,84.52,29.52,83.8,31.23,83.84ZM45,107.21v8.08Q64.78,106.6,64,97q.39-6.7-11.15-5.93Q45,94.12,45,107.21Z" transform="translate(-0.44 -5.07)"/><path class="cls-1" d="M80.63,96.81q0-13,15.05-13h19q17.31-.37,15.71,17.29-7.73,14.66-.32,29.17,1.61,17.67-15.7,17.28h-19q-15,0-15.05-13Q88.33,115.14,80.63,96.81ZM94.06,119.1q0,19.88,10.47,19.88,11.6-.1,11.12-19.34c.21-4.45.31-7,.31-7.79q.48-19.23-11.12-19.34-10.47,0-10.47,19.88Z" transform="translate(-0.44 -5.07)"/><path class="cls-1" d="M133.39,96.81q0-13,15.05-13h19q17.29-.37,15.7,17.29-7.71,14.66-.31,29.17,1.59,17.67-15.7,17.28h-19q-15,0-15-13Q141.09,115.14,133.39,96.81Zm13.43,22.29q0,19.88,10.46,19.88,11.6-.1,11.13-19.34c.2-4.45.31-7,.31-7.79q.47-19.23-11.12-19.34-10.47,0-10.47,19.88Z" transform="translate(-0.44 -5.07)"/><path class="cls-1" d="M187.8,83.84h13.76q9.49,0,11,11.88a155,155,0,0,0,4.1,21.62c.39.83.83.83,1.31,0l4.58-29.17q1.78-3.6,3.93-4.33h15.73q2.61.72,2,3.25-3.27,2.68-3.27,9.18l6.54,41.57c.72,6-.38,9.22-3.27,9.74H228.41c-1.67-.56-2.11-1.45-1.31-2.69q7.88-5.2,7.88-14.06-1.51-25-4.61-35.64c-.52-1-1.17-1-2,0q-2.61,23.72-5.09,30.32t1.17,8.57c.71,1.58.06,2.47-2,2.69h-4.58q-6.37,0-8.53-5.94-6.75-36.09-10.47-34.56-2.76,0-3.95,27,0,15.06,11.81,22.16c.4,1.09,0,1.81-1.31,2.15H191.07q-5.23,0-5.24-4.86l3.93-46.45q0-6.36-3.93-9.74C185.38,85.13,186,84.23,187.8,83.84Z" transform="translate(-0.44 -5.07)"/></g></g></svg>