<svg viewBox="0 0 398.22 425.9" xmlns="http://www.w3.org/2000/svg"><path d="m94 118.28s-13.39 1.34-17.41 0-12-1.34-17.41-2.68-14.73 2.68-20.09 0-20.09-2.68-26.8-14.73-1.34-28.13 4-36.16 10.71-17.41 20.11-21.43 20.09-12 30.81-16.07a263.92 263.92 0 0 1 34.79-10.72c12-2.68 24.11-6.69 44.19-9.37s48.22-4 65.63-4 50.89 0 73.66 2.68 60.27 10.71 79 20.09 30.86 14.71 36.21 24.11 6.7 14.73 6.7 25.44-2.68 21.43-8 25.45-14.73 4-21.42 5.36-16.08 4-20.09 4-12.06 1.34-18.75 1.34-5.36 2.68-4.69 6c1.34 6.7-7.07 6-12.06 9.38-8 5.35-11.38 2-8.7 14.06 1.42 6.42 14 76.65 30.13 140 16.07 62.94 32.82 105.13 32.82 105.13s-6.7 13.4-25.45 22.77-96.47 20.07-132.63 20.07-105.81-1.34-132.55-13.39-29.47-14.74-36.17-29.47c0 0 10.48-32.9 22.1-83.7 15.28-66.92 32.78-156.44 32.78-158.71 0-4-1.34-5.36-8-9.38s-8-9.37-6.7-10.71c5.99-6.07 3.99-5.36 3.99-5.36z" fill="#006837" transform="translate(-9.17 -3.1)"/></svg>