<svg id="Layer_1" data-name="Layer 1" xmlns="http://www.w3.org/2000/svg" viewBox="0 0 327.6 491.52"><defs><style>.cls-1{fill:none;}</style></defs>




<path class="cls-1" d="M89.81,225.62c-11,24-27.93,48.17-52.79,55.34S-5.77,333,9.86,343s38.18-9.74,36.9,21.52S-3.46,435,25.24,460.83s123.24,41.51,161.42,9.74,38.44-50.48,82.51-54.83,66.87-25.81,50.22-54.16-31-60.63-10.76-84.72,28.18-125.81-19.48-131.7-79.68,72-102.49,56.88S126.45,145.67,89.81,225.62Z"/>



<path class="cls-1" d="M194.6,280.7c-24.87-8.79-33.82-10.76-64.82-14.86C104.13,262.45,80.7,268,64.7,277.37c-23.58,13.84-34.34,36.39-25.12,46.75,16.86,18.94,49.11,1.37,52.53,39.86s-50,51.24-32,72.77c20.63,24.76,81.48,19,103.71,11.2,29.52-10.3,18-30.63,55.66-23,37.92,7.69,68.28,1.58,62.75-29.39-2.79-15.71-20.78-28.48-20.22-47,.48-15.63,22.06-15.68,15.63-42.27S224.33,291.21,194.6,280.7Z"/></svg>