<svg id="Layer_1" data-name="Layer 1" xmlns="http://www.w3.org/2000/svg" viewBox="0 0 407.77 500.18"><defs><style>.cls-1{fill:#fff;}</style></defs><path id="deco" class="cls-1" d="M269.3,399.24c54.57-31.57,110.5-41.56,130.5-147.66S415.3-18.92,226.3,1.78c-37.92,4.15-58.21,56.4-66.39,124.16C152.61,186.52-7.84,339.71.3,401.82,8,460.51,212.93,431.85,269.3,399.24Z"/><path id="clip" class="cls-1" d="M109.3,68.72c-50.25,42.49-71,98-39,148s57.5,53,50,120-54,107-38,132,131.39,78.5,207-59c51.82-94.23,114-239,29-329S177.3,11.22,109.3,68.72Z"/></svg>